<svg width="127" height="57" viewBox="0 0 127 57" fill="none" xmlns="http://www.w3.org/2000/svg">
<g clip-path="url(#clip0)">
<path d="M106.62 4.79523C95.6734 2.80475 84.6377 1.35713 73.602 0.814274C62.5662 0.361893 51.3525 0.723798 40.5837 3.07618C35.2439 4.34285 29.904 6.06189 25.0981 8.77618C22.6952 10.1333 20.4702 11.7619 18.5122 13.6619C16.5543 15.5619 14.9523 17.8238 13.7954 20.3571C12.7274 22.8905 12.1934 25.6047 12.2824 28.319C12.4604 31.0333 13.7064 33.5667 15.4863 35.5571C17.2663 37.5476 19.5802 39.1762 21.9832 40.4428C24.3861 41.7095 26.9671 42.7952 29.548 43.7C34.7989 45.419 40.2277 46.5952 45.6566 47.4095C51.0855 48.2238 56.6034 48.6762 62.1212 48.8571C67.6391 49.0381 73.157 49.0381 78.6748 48.7667C84.1927 48.4952 89.7106 48.0428 95.1395 47.1381C97.8094 46.6857 100.568 46.1428 103.149 45.3286C105.73 44.6047 108.311 43.6095 110.714 42.4333C111.871 41.8 113.028 41.0762 114.096 40.2619C115.164 39.4476 116.143 38.5428 116.944 37.5476C117.745 36.5524 118.457 35.4667 118.902 34.2905C119.347 33.1143 119.703 31.8476 119.792 30.5809C120.148 27.9571 119.525 25.5143 118.101 23.3428C116.766 21.1714 114.719 19.3619 112.583 17.8238C108.133 14.7476 102.971 12.7571 97.8094 11.219C87.3076 7.96189 76.2719 6.60475 65.3251 6.24285C54.3784 5.88094 43.2537 6.69523 32.5739 8.77618C27.234 9.86189 21.8942 11.3095 16.9993 13.4809C14.5073 14.5667 12.1934 15.8333 10.0574 17.3714C7.9215 18.9095 6.14154 20.719 4.98457 22.8905C3.82759 25.0619 3.4716 27.4143 3.91659 29.8571C4.36158 32.2095 5.60755 34.4714 7.20951 36.4619C8.81148 38.4524 10.8584 40.1714 13.0834 41.7095C15.3083 43.2476 17.6223 44.5143 20.1142 45.6905C25.0091 47.9524 30.26 49.6714 35.5108 50.9381C40.8507 52.2048 46.2796 53.019 51.7085 53.4714C62.6552 54.2857 73.7799 54.3762 84.7267 53.3809C90.1556 52.8381 95.6734 51.9333 100.924 50.5762C106.175 49.1286 111.426 47.2286 115.965 44.1524C118.19 42.6143 120.326 40.8047 122.017 38.7238C123.708 36.5524 124.954 34.1095 125.666 31.4857C126.378 28.8619 126.467 25.9667 126.111 23.2524C125.844 20.4476 125.132 17.7333 124.153 15.1095L124.509 15.019C125.577 17.6428 126.378 20.3571 126.823 23.1619C127.268 25.9667 127.268 28.9524 126.645 31.7571C126.022 34.5619 124.776 37.2762 123.085 39.6286C121.394 41.9809 119.258 43.9714 116.944 45.6C112.227 48.9476 106.976 51.0286 101.547 52.6571C96.1184 54.2857 90.6005 55.2809 85.0827 56.0047C79.5648 56.7286 73.9579 57.0905 68.3511 57.1809C62.7442 57.2714 57.2263 57.1809 51.6195 56.819C46.0126 56.4571 40.4057 55.6428 34.8879 54.4667C29.37 53.2 23.9411 51.5714 18.6902 49.219C16.1093 48.0428 13.5284 46.6857 11.1254 44.9667C8.72248 43.3381 6.40853 41.4381 4.45058 39.0857C2.49263 36.7333 0.979661 33.9286 0.356675 30.7619C0.000683701 28.9524 -0.0883142 27.3238 0.17868 25.6047C0.445673 23.9762 0.979661 22.4381 1.69164 20.9905C3.20461 18.1857 5.51855 16.0143 7.9215 14.2952C10.3244 12.5762 12.9054 11.219 15.5753 10.0428C20.9152 7.78094 26.3441 6.33332 31.9509 5.24761C43.0757 3.16665 54.2894 2.53332 65.5031 2.9857C71.11 3.25713 76.7169 3.70951 82.2347 4.61427C87.7526 5.51904 93.2705 6.60475 98.6994 8.3238C104.039 10.0428 109.379 12.1238 114.185 15.4714C116.499 17.1905 118.813 19.1809 120.415 21.8048C121.216 23.0714 121.839 24.519 122.195 26.0571C122.551 27.5952 122.551 29.2238 122.373 30.6714C122.195 32.2095 121.839 33.6571 121.216 35.1047C120.593 36.5524 119.792 37.819 118.813 38.9952C117.834 40.1714 116.766 41.1667 115.609 42.0714C114.452 42.9762 113.206 43.7 111.871 44.3333C109.29 45.6905 106.62 46.5952 103.861 47.319C101.102 48.0428 98.3434 48.5857 95.5844 49.0381C90.0666 49.8524 84.4597 50.3047 78.8528 50.4857C73.246 50.6667 67.7281 50.6667 62.1212 50.3952C56.5144 50.1238 50.9965 49.5809 45.4786 48.7667C39.9607 47.8619 34.4429 46.6857 29.192 44.8762C26.5221 43.9714 23.9411 42.8857 21.4492 41.4381C18.9572 40.0809 16.6433 38.3619 14.6853 36.1905C12.7274 34.019 11.3924 31.2143 11.2144 28.2286C11.0364 25.2428 11.6594 22.3476 12.8164 19.7238C13.9734 17.1 15.7533 14.7476 17.8003 12.7571C19.8472 10.7667 22.1612 9.13808 24.6531 7.78094C29.548 5.06665 34.9769 3.34761 40.4057 2.08094C45.8346 0.90475 51.4415 0.271416 56.9593 -0.0904883C62.4772 -0.361917 68.0841 -0.361917 73.602 -1.20699e-05C84.7267 0.542845 95.7624 2.08094 106.62 4.16189V4.79523Z" fill="url(#paint0_linear)" fill-opacity="0.5"/>
</g>
<defs>
<linearGradient id="paint0_linear" x1="28.9434" y1="63.9083" x2="103.028" y2="-8.96576" gradientUnits="userSpaceOnUse">
<stop stop-color="#224099"/>
<stop offset="0.5201" stop-color="#AB7AB5"/>
<stop offset="1" stop-color="white"/>
</linearGradient>
<clipPath id="clip0">
<rect width="127" height="57" fill="white"/>
</clipPath>
</defs>
</svg>
