<svg width="127" height="145" viewBox="0 0 127 145" fill="none" xmlns="http://www.w3.org/2000/svg">
<path d="M122.913 37.4165V101.52C122.913 103.469 120.871 104.638 119.217 103.663L88.2851 85.7378L88.4796 85.6404L88.3823 61.1875C88.3823 59.4339 86.4369 58.3623 84.8806 59.2391L63.7729 71.9076L85.0752 59.1416C86.5342 58.2648 86.5342 56.219 85.0752 55.3422L63.7729 43.1644V6.53377C63.7729 5.07244 65.4265 4.09822 66.6911 4.87759L122.913 37.4165Z" stroke="white" stroke-width="5" stroke-miterlimit="10"/>
<path d="M63.6755 71.9073L41.4006 58.7516C40.4279 58.1671 39.2607 58.9465 39.2607 60.0181L39.358 85.6401L7.55054 103.955C6.28602 104.735 4.63243 103.761 4.63243 102.299L4.53516 37.4162L60.2711 5.07213C61.7301 4.19533 63.5783 5.26697 63.5783 7.02057L63.6755 43.2616L40.817 56.6084C40.1361 56.9981 40.1361 58.0697 40.817 58.4594L63.6755 71.9073Z" stroke="white" stroke-width="5" stroke-miterlimit="10"/>
<path d="M119.703 107.755L63.6754 140.002L7.45307 107.366C6.28583 106.684 6.28583 104.93 7.45307 104.248L39.3578 85.7379V85.9327L61.0491 98.4027C62.3136 99.1821 63.9672 98.2079 63.9672 96.6491L63.8699 72.1962L63.9672 96.3568C63.9672 98.013 65.718 98.9872 67.0798 98.2079L88.1875 85.8353L119.606 104.053C121.162 104.833 121.162 106.976 119.703 107.755Z" stroke="white" stroke-width="5" stroke-miterlimit="10"/>
<path d="M62.3677 120.065C43.3759 120.065 18.2796 110.117 8.10547 105.143L39.9845 86.8298L64.4025 99.0388L90.1771 86.8298L120.021 105.143C108.717 110.117 81.3595 120.065 62.3677 120.065Z" fill="white" fill-opacity="0.29"/>
</svg>
