<svg width="97" height="113" viewBox="0 0 97 113" fill="none" xmlns="http://www.w3.org/2000/svg">
<path opacity="0.39" d="M80.184 60.3208L26.1597 95.1532C20.3773 98.8698 13.0254 94.5481 13.0254 87.4607V18.0553C13.0254 17.3638 13.108 16.6724 13.2732 16.0673V73.9772C13.2732 79.941 19.5513 83.5712 24.3424 80.4596L69.8583 51.159C74.1538 48.3931 74.4842 42.17 70.8495 38.972L80.2666 45.0223C85.636 48.3931 85.636 56.7771 80.184 60.3208Z" fill="white"/>
<g filter="url(#filter0_d)">
<path d="M26.0772 10.3627L80.1015 44.9358C85.6361 48.4795 85.6361 56.7771 80.1015 60.3208L26.0772 95.1531C20.2948 98.8697 12.9429 94.5481 12.9429 87.4606V18.0552C12.9429 10.9678 20.2948 6.64614 26.0772 10.3627Z" stroke="white" stroke-width="6" stroke-miterlimit="10" shape-rendering="crispEdges"/>
</g>
<defs>
<filter id="filter0_d" x="0.942871" y="0.97403" width="95.3096" height="111.568" filterUnits="userSpaceOnUse" color-interpolation-filters="sRGB">
<feFlood flood-opacity="0" result="BackgroundImageFix"/>
<feColorMatrix in="SourceAlpha" type="matrix" values="0 0 0 0 0 0 0 0 0 0 0 0 0 0 0 0 0 0 127 0" result="hardAlpha"/>
<feOffset dy="4"/>
<feGaussianBlur stdDeviation="4.5"/>
<feComposite in2="hardAlpha" operator="out"/>
<feColorMatrix type="matrix" values="0 0 0 0 0 0 0 0 0 0 0 0 0 0 0 0 0 0 0.25 0"/>
<feBlend mode="normal" in2="BackgroundImageFix" result="effect1_dropShadow"/>
<feBlend mode="normal" in="SourceGraphic" in2="effect1_dropShadow" result="shape"/>
</filter>
</defs>
</svg>
