<svg width="96" height="97" viewBox="0 0 96 97" fill="none" xmlns="http://www.w3.org/2000/svg">
<path opacity="0.4" d="M16.1994 11.7561C15.8349 21.938 17.0196 36.7981 26.7707 47.2552C39.8025 61.0145 60.3982 58.9965 60.2159 61.2897C60.0336 64.0416 30.5071 74.3152 15.2881 56.7033C5.26367 45.1454 5.0814 25.9741 16.1994 11.7561Z" fill="#E6E7E8"/>
<path d="M65.8438 40.7303C68.5046 24.228 57.371 8.67907 40.9762 6.00085C24.5814 3.32263 9.1338 14.5293 6.47302 31.0316C3.81225 47.5339 14.9459 63.0828 31.3407 65.761C47.7355 68.4392 63.1831 57.2326 65.8438 40.7303Z" stroke="white" stroke-width="7" stroke-miterlimit="10"/>
<path d="M90.0162 90.7347C90.1985 90.5512 90.1985 90.1843 90.0162 90.0009L72.9746 72.8476C72.7924 72.6641 72.4278 72.6641 72.2456 72.8476C72.0633 73.031 72.0633 73.3979 72.2456 73.5814L89.196 90.643C89.3783 91.0099 89.7428 91.0099 90.0162 90.7347Z" stroke="white" stroke-width="8" stroke-miterlimit="10"/>
<path d="M75.5262 76.1498L58.1201 58.6295" stroke="white" stroke-width="6" stroke-miterlimit="10"/>
</svg>
